<?xml version="1.0" standalone="no"?><!DOCTYPE svg PUBLIC "-//W3C//DTD SVG 1.1//EN" "http://www.w3.org/Graphics/SVG/1.1/DTD/svg11.dtd"><svg t="1741685330885" class="icon" viewBox="0 0 1024 1024" version="1.1" xmlns="http://www.w3.org/2000/svg" p-id="17998" xmlns:xlink="http://www.w3.org/1999/xlink" width="200" height="200"><path d="M864 160h-704c-57.6 0-102.4 44.8-102.4 102.4v499.2c0 57.6 44.8 102.4 102.4 102.4h704c57.6 0 102.4-44.8 102.4-102.4V262.4c0-57.6-44.8-102.4-102.4-102.4z m-704 64h704c19.2 0 38.4 19.2 38.4 38.4l-352 256c-19.2 12.8-57.6 12.8-76.8 0l-352-256c-6.4-19.2 12.8-38.4 38.4-38.4z m704 576h-704c-19.2 0-38.4-19.2-38.4-38.4V339.2l320 230.4c19.2 19.2 44.8 25.6 70.4 25.6s51.2-6.4 76.8-25.6l320-230.4v422.4c0 19.2-19.2 38.4-44.8 38.4z" fill="#707070" p-id="17999"></path><path d="M889.6 185.6m-134.4 0a134.4 134.4 0 1 0 268.8 0 134.4 134.4 0 1 0-268.8 0Z" fill="#FF4040" p-id="18000"></path></svg>